# Blender 3.5.0
# www.blender.org
mtllib player.mtl
o 立方体.001
v -5.000000 0.000000 -2.000000
v -1.500000 -0.500000 -3.000000
v 0.250000 -0.750000 -2.000000
v -1.500000 0.500000 -2.000000
v 2.000000 0.000000 -2.000000
v 2.000000 0.000000 -3.000000
v -1.500000 0.000000 -3.000000
v -1.500000 -0.500000 -2.000000
v -1.500000 0.500000 -3.000000
v 0.250000 0.750000 -2.000000
v -1.500000 0.000000 -2.000000
v 0.250000 -0.750000 -3.000000
v 0.250000 0.750000 -3.000000
v 0.250000 0.000000 -3.000000
v 1.125000 -0.875000 -3.000000
v 0.250000 0.000000 -2.000000
v 1.125000 -0.875000 -2.000000
v 1.125000 0.875000 -2.000000
v 1.125000 0.875000 -3.000000
v 1.125000 0.000000 -3.000000
v 1.562500 -0.937500 -2.000000
v 1.562500 0.937500 -3.000000
v 1.562500 0.000000 -3.000000
v 1.562500 -0.937500 -3.000000
v 1.555812 0.000000 -2.000000
v 1.562500 0.937500 -2.000000
v 0.573576 0.634321 0.002300
v -0.573577 0.815169 -0.416513
v 1.732032 0.003996 0.006922
v 0.584879 -0.815156 -1.411891
v -0.584880 0.815156 0.411891
v -4.732032 -0.003996 -0.006922
v 0.573577 -0.815169 1.416513
v -5.000000 0.000000 2.000000
v -1.500000 0.500000 3.000000
v 0.250000 0.750000 2.000000
v -1.500000 -0.500000 2.000000
v 2.000000 0.000000 2.000000
v 2.000000 0.000000 3.000000
v -1.500000 0.000000 3.000000
v -1.500000 0.500000 2.000000
v -1.500000 -0.500000 3.000000
v 0.250000 -0.750000 2.000000
v -1.500000 0.000000 2.000000
v 0.250000 0.750000 3.000000
v 0.250000 -0.750000 3.000000
v 0.250000 0.000000 3.000000
v 1.125000 0.875000 3.000000
v 0.250000 0.000000 2.000000
v 1.125000 0.875000 2.000000
v 1.125000 -0.875000 2.000000
v 1.125000 -0.875000 3.000000
v 1.125000 0.000000 3.000000
v 1.562500 0.937500 2.000000
v 1.562500 -0.937500 3.000000
v 1.562500 0.000000 3.000000
v 1.562500 0.937500 3.000000
v 1.555812 0.000000 2.000000
v 1.562500 -0.937500 2.000000
vn -0.1414 0.9899 -0.0000
vn -0.0000 -0.0000 -1.0000
vn -0.0000 -0.0000 1.0000
vn 0.9062 -0.4229 -0.0000
vn -0.2747 -0.0000 -0.9615
vn -0.1414 -0.9899 -0.0000
vn 0.9062 0.4229 -0.0000
vn 0.3467 0.6550 0.6714
vn 0.5792 -0.8152 0.0023
vn -0.1736 0.4243 0.8887
vn -0.2650 -0.7969 -0.5429
vn 0.3531 0.6548 -0.6683
vn -0.1194 0.9928 -0.0016
vn -0.2747 -0.0000 0.9615
vt 0.326200 0.000000
vt 0.959310 0.539384
vt 0.427323 0.504351
vt 0.891384 0.248595
vt 0.326200 0.417270
vt 0.959310 0.113220
vt 0.270404 0.252529
vt 0.081274 0.543795
vt 0.270404 0.530709
vt 0.420556 0.793897
vt 0.000000 0.543806
vt 0.373181 0.756333
vt 0.869295 0.259310
vt 0.458037 0.504088
vt 0.326200 0.278180
vt 0.959310 0.255275
vt 0.211849 0.266651
vt 0.847206 0.270024
vt 0.488750 0.503825
vt 0.242506 0.378793
vt 0.298302 0.265354
vt 0.369539 0.630605
vt 0.891384 0.106541
vt 0.183951 0.392915
vt 0.461679 0.629816
vt 0.415609 0.630210
vt 0.340646 0.693731
vt 0.891384 0.035514
vt 0.284353 0.398031
vt 0.326200 0.486815
vt 0.959310 0.042193
vt 0.228557 0.441925
vt 0.170002 0.456048
vt 0.448143 0.692812
vt 0.394395 0.693271
vt 0.081274 0.626660
vt 0.326200 0.521587
vt 0.959310 0.006679
vt 0.163027 0.487614
vt 0.441376 0.724309
vt 0.383788 0.724802
vt 0.000000 0.626671
vt 0.326200 0.725295
vt 0.891384 0.000000
vt 0.273944 0.497032
vt 0.221582 0.473491
vt 0.488750 0.761873
vt 0.492860 0.794749
vt 0.690946 0.107130
vt 0.525838 0.152554
vt 0.734285 0.197620
vt 0.496715 0.901865
vt 0.163027 0.645550
vt 0.694408 0.000000
vt 0.271155 0.760584
vt 0.492860 0.024630
vt 0.847207 0.055443
vt 0.536054 0.703522
vt 0.684492 0.196814
vt 0.649309 0.433768
vt 0.684492 0.433768
vt 0.847207 0.467296
vt 0.271155 0.530709
vt 0.649309 0.845863
vt 0.684492 0.000000
vt 0.684492 1.000000
vt 0.163027 0.543795
vt 0.492860 0.503825
vt 0.438731 0.271628
vt 0.079574 0.166311
vt 0.492860 0.115896
vt 0.163027 0.266097
vt 0.684492 0.715891
vt 0.107392 0.014441
vt 0.081274 0.543806
vt 0.048681 0.000000
vt 0.378715 0.000000
vt 0.162547 0.543795
vt 0.408723 0.265124
vt 0.107392 0.292139
vt 0.492860 0.245206
vt 0.752418 0.722570
vt 0.378715 0.258619
vt 0.163027 0.127248
vt 0.684492 0.573837
vt 0.135210 0.279118
vt 0.438731 0.142319
vt 0.752418 0.580516
vt 0.348707 0.122805
vt 0.393719 0.132562
vt 0.438731 0.077664
vt 0.121301 0.146779
vt 0.065665 0.103397
vt 0.492860 0.051241
vt 0.684492 0.502809
vt 0.163027 0.057823
vt 0.752418 0.509489
vt 0.333702 0.054898
vt 0.386217 0.066281
vt 0.058710 0.071940
vt 0.492860 0.018914
vt 0.752418 0.473975
vt 0.162547 0.626660
vt 0.326200 0.020945
vt 0.382466 0.033140
vt 0.000000 0.057499
vt 0.438731 0.045336
vt 0.110922 0.048031
vt 0.684492 0.467296
vt 0.163027 0.023111
vt 0.081274 0.626671
s 0
usemtl Material
f 13/24/1 9/17/1 4/7/1 10/20/1
f 22/40/2 6/12/2 23/41/2
f 11/21/3 10/20/3 4/7/3 1/1/3
f 24/42/4 6/11/4 5/8/4 21/36/4
f 9/17/1 1/1/1 4/7/1
f 3/5/3 11/21/3 1/1/3 8/15/3
f 24/43/2 23/41/2 6/12/2
f 1/2/5 7/13/5 2/4/5
f 1/2/6 2/4/6 8/16/6
f 1/2/5 9/18/5 7/13/5
f 2/3/2 7/14/2 14/26/2 12/22/2
f 17/30/3 16/29/3 11/21/3 3/5/3
f 2/4/6 12/23/6 3/6/6 8/16/6
f 16/29/3 18/32/3 10/20/3 11/21/3
f 9/19/2 13/25/2 14/26/2 7/14/2
f 19/33/1 13/24/1 10/20/1 18/32/1
f 22/39/1 19/33/1 18/32/1 26/46/1
f 25/45/3 26/46/3 18/32/3 16/29/3
f 21/37/3 25/45/3 16/29/3 17/30/3
f 12/22/2 14/26/2 20/35/2 15/27/2
f 12/23/6 15/28/6 17/31/6 3/6/6
f 13/25/2 19/34/2 20/35/2 14/26/2
f 5/9/3 25/45/3 21/37/3
f 5/9/3 26/46/3 25/45/3
f 6/12/7 22/40/7 26/47/7 5/10/7
f 15/27/2 20/35/2 23/41/2 24/43/2
f 15/28/6 24/44/6 21/38/6 17/31/6
f 19/34/2 22/40/2 23/41/2 20/35/2
f 27/48/8 31/58/8 33/64/8 29/52/8
f 30/55/9 29/53/9 33/63/9
f 33/64/10 31/58/10 32/60/10
f 32/61/11 28/50/11 30/56/11 33/65/11
f 28/51/12 27/49/12 29/54/12 30/57/12
f 32/62/13 31/59/13 27/49/13 28/51/13
f 46/88/6 42/82/6 37/73/6 43/85/6
f 55/104/3 39/77/3 56/105/3
f 44/86/2 43/84/2 37/72/2 34/67/2
f 57/106/7 39/76/7 38/74/7 54/100/7
f 42/82/6 34/66/6 37/73/6
f 36/70/2 44/86/2 34/67/2 41/80/2
f 57/107/3 56/105/3 39/77/3
f 34/68/14 40/79/14 35/69/14
f 34/68/1 35/69/1 41/81/1
f 34/68/14 42/83/14 40/79/14
f 35/69/3 40/79/3 47/90/3 45/87/3
f 50/93/2 49/92/2 44/86/2 36/70/2
f 35/69/1 45/87/1 36/71/1 41/81/1
f 49/92/2 51/96/2 43/84/2 44/86/2
f 42/83/3 46/89/3 47/90/3 40/79/3
f 52/97/6 46/88/6 43/85/6 51/95/6
f 55/102/6 52/97/6 51/95/6 59/109/6
f 58/108/2 59/110/2 51/96/2 49/92/2
f 54/100/2 58/108/2 49/92/2 50/93/2
f 45/87/3 47/90/3 53/99/3 48/91/3
f 45/87/1 48/91/1 50/94/1 36/71/1
f 46/89/3 52/98/3 53/99/3 47/90/3
f 38/74/2 58/108/2 54/100/2
f 38/74/2 59/110/2 58/108/2
f 39/78/4 55/103/4 59/111/4 38/75/4
f 48/91/3 53/99/3 56/105/3 57/107/3
f 48/91/1 57/107/1 54/101/1 50/94/1
f 52/98/3 55/104/3 56/105/3 53/99/3
